<svg width="571" height="571" viewBox="0 0 571 571" fill="none" xmlns="http://www.w3.org/2000/svg">
<circle cx="286" cy="285" r="284" fill="#011A35" fill-opacity="0.968627"/>
<path d="M270.247 332.911L270.315 332.931L270.383 332.948C271.796 333.295 273.503 333.34 275.207 333.027C281.015 331.957 285.125 326.906 285.237 321.213L290.128 320.312C290.208 322.34 289.927 324.372 289.293 326.314C288.403 329.036 286.845 331.493 284.762 333.459C282.679 335.425 280.137 336.838 277.367 337.57C274.621 338.295 271.737 338.326 268.976 337.662C262.601 335.679 258.442 331.981 254.167 324.166C251.372 319.024 247.548 317.077 243.142 314.832L243.073 314.797C243.072 314.797 243.071 314.796 243.07 314.796C238.345 312.371 232.833 309.508 227.318 302.773L227.318 302.773C223.111 297.64 220.248 291.652 219.213 286.036C215.97 268.426 227.16 252.182 244.77 248.939C261.568 245.845 277.122 255.885 281.336 272.102L276.499 272.993C272.796 259.549 259.67 251.177 245.658 253.758C230.832 256.489 221.302 270.322 224.033 285.148C224.944 290.098 227.482 295.272 231.107 299.696C235.978 305.655 240.846 308.16 245.209 310.406L245.31 310.458L245.311 310.458L245.341 310.474C250.379 313.065 255.014 315.45 258.461 321.787L258.464 321.793L258.467 321.799C260.406 325.314 262.211 327.772 264.142 329.521C266.121 331.312 268.116 332.256 270.247 332.911ZM204.755 288.699C206.928 300.496 213.366 310.415 222.127 317.19L219.356 321.212C209.527 313.73 202.352 302.706 199.935 289.586C197.519 276.467 200.296 263.61 206.813 253.117L210.882 255.92C205.061 265.344 202.583 276.906 204.755 288.699ZM244.98 288.337C242.839 286.862 241.372 284.597 240.901 282.041C240.43 279.485 240.994 276.846 242.469 274.705C243.943 272.565 246.208 271.097 248.764 270.627C251.321 270.156 253.96 270.72 256.1 272.194C258.241 273.669 259.708 275.934 260.179 278.49C260.65 281.047 260.086 283.685 258.611 285.826C257.136 287.967 254.872 289.434 252.315 289.905C249.759 290.375 247.12 289.811 244.98 288.337Z" fill="white" stroke="white" stroke-width="4.90056"/>
<path d="M168.085 388.133L168.085 388.133C161.679 381.728 158.104 373.028 158.104 363.955V279.112C158.104 267.554 148.742 258.193 137.184 258.193C125.626 258.193 116.265 267.554 116.265 279.112V396.419C116.265 409.854 121.586 422.709 131.069 432.192L183.977 485.1C190.282 491.405 198.847 494.926 207.781 494.926H243.105C256.993 494.926 268.261 483.658 268.261 469.77V427.984C268.261 412.325 262.04 397.298 250.968 386.226L237.569 372.827L229.519 364.777L212.572 347.83C206.055 341.313 195.472 341.313 188.955 347.83C182.438 354.347 182.438 364.93 188.955 371.447L205.902 388.394L213.952 396.444C219.896 402.387 218.924 412.223 211.952 416.871C206.709 420.384 199.685 419.68 195.201 415.196L168.085 388.133ZM168.085 388.133L195.201 415.196L168.085 388.133ZM412.843 363.955V279.112C412.843 267.554 422.205 258.193 433.763 258.193C445.321 258.193 454.682 267.554 454.682 279.112V342.664L454.735 396.419C454.735 409.854 449.414 422.709 439.931 432.192L387.023 485.1C380.718 491.405 372.153 494.926 363.22 494.926H327.895C314.007 494.926 302.739 483.658 302.739 469.77V427.984C302.739 412.325 308.96 397.298 320.032 386.226L333.431 372.827L341.481 364.777L358.428 347.83C364.945 341.313 375.528 341.313 382.045 347.83C388.562 354.347 388.562 364.93 382.045 371.447L365.098 388.394L357.049 396.443C351.103 402.334 352.077 412.223 359.048 416.871C364.291 420.384 371.315 419.68 375.8 415.196L402.862 388.133C409.268 381.728 412.843 373.028 412.843 363.955Z" fill="white" stroke="white" stroke-width="0.529605"/>
<path d="M226.268 206.938C246.193 204.53 262.091 191.388 268.982 173.978C258.141 158.711 239.569 149.737 219.644 152.145C199.72 154.554 183.822 167.696 176.931 185.106C187.772 200.372 206.344 209.347 226.268 206.938ZM219.042 147.164C241.756 144.418 262.978 155.246 274.561 173.303C267.615 193.601 249.585 209.173 226.871 211.919C204.156 214.665 182.935 203.838 171.352 185.78C178.298 165.483 196.328 149.91 219.042 147.164ZM220.247 157.127C232.7 155.621 243.866 164.379 245.372 176.832C246.877 189.285 238.119 200.452 225.666 201.957C213.213 203.462 202.047 194.705 200.541 182.252C199.036 169.799 207.794 158.632 220.247 157.127ZM220.849 162.108C216.225 162.667 212.013 165.04 209.138 168.704C206.264 172.369 204.963 177.026 205.522 181.649C206.081 186.273 208.454 190.486 212.119 193.36C215.784 196.234 220.44 197.535 225.064 196.976C229.688 196.417 233.9 194.044 236.774 190.379C239.649 186.715 240.949 182.058 240.39 177.434C239.831 172.81 237.459 168.598 233.794 165.724C230.129 162.85 225.473 161.549 220.849 162.108Z" fill="white" stroke="white" stroke-width="1.44893"/>
<path d="M292.987 150.121C292.709 143.495 294.722 136.994 298.656 131.699L301.003 134.047C298.504 137.565 296.928 141.665 296.436 145.968C295.887 150.761 296.703 155.611 298.79 159.96C300.876 164.31 304.149 167.981 308.231 170.552C312.313 173.123 317.038 174.489 321.862 174.493L321.866 174.493C327.185 174.483 332.355 172.816 336.667 169.743L339.011 172.087C333.714 176.017 327.212 178.025 320.586 177.741C313.362 177.432 306.517 174.422 301.406 169.308C296.295 164.193 293.291 157.346 292.987 150.121Z" fill="white" stroke="white" stroke-width="3.27926"/>
<path d="M356.029 78.0742C357.445 77.1335 359.109 76.6342 360.81 76.6397C363.083 76.647 365.262 77.5554 366.867 79.1658C368.472 80.7763 369.374 82.9574 369.374 85.2313C369.374 86.9318 368.869 88.594 367.924 90.0075C366.979 91.4209 365.635 92.5221 364.064 93.1716C362.492 93.8211 360.763 93.9896 359.096 93.6558C357.428 93.3221 355.898 92.5011 354.697 91.2968C353.497 90.0924 352.681 88.559 352.352 86.8905C352.024 85.2221 352.198 83.4938 352.852 81.9243C353.507 80.3549 354.612 79.015 356.029 78.0742Z" fill="white" stroke="white" stroke-width="3.27926"/>
<path d="M361.342 129.371H361.381L361.42 129.369C361.667 129.357 361.913 129.401 362.14 129.498C362.367 129.594 362.569 129.741 362.732 129.926L362.739 129.934L362.746 129.942C362.9 130.114 363.017 130.317 363.088 130.538C363.158 130.757 363.181 130.988 363.156 131.217C363.156 131.218 363.156 131.22 363.156 131.221L360.206 156.195C360.206 156.196 360.206 156.197 360.206 156.198C360.157 156.597 359.963 156.964 359.661 157.229C359.359 157.495 358.969 157.641 358.566 157.638H358.554H358.28C357.883 157.568 357.524 157.354 357.274 157.035C357.007 156.694 356.885 156.261 356.936 155.83L356.936 155.83L359.461 134.482L359.678 132.65H357.833H348.848H346.101L347.405 135.068C350.041 139.959 351.204 145.51 350.753 151.049C350.352 155.964 348.696 160.682 345.956 164.757L343.577 162.378C346.509 157.685 347.846 152.155 347.367 146.618C346.847 140.619 344.228 134.996 339.97 130.739C335.713 126.481 330.09 123.862 324.091 123.342C318.555 122.863 313.027 124.2 308.335 127.13L305.99 124.768C309.663 122.34 313.85 120.776 318.234 120.208L318.838 120.13L319.245 119.675L338.658 97.9662L340.013 96.4513L338.246 95.4475L328.834 90.1023L327.879 89.56L327.014 90.2366L313.015 101.187C313.015 101.187 313.014 101.188 313.014 101.188C312.67 101.455 312.234 101.575 311.802 101.521C311.37 101.467 310.976 101.244 310.709 100.9C310.441 100.556 310.321 100.12 310.375 99.6871C310.428 99.2545 310.652 98.8611 310.996 98.5934L310.999 98.5906L326.704 86.2956C326.705 86.2953 326.705 86.295 326.705 86.2947C326.961 86.0955 327.271 85.9768 327.594 85.9534C327.918 85.9301 328.242 86.0035 328.524 86.1644L328.524 86.1645L328.534 86.17L341.148 93.2467L353.466 100.422L353.47 100.424C354.159 100.823 354.751 101.37 355.203 102.026C355.655 102.682 355.955 103.431 356.083 104.217C356.21 105.003 356.161 105.808 355.94 106.573C355.719 107.336 355.332 108.041 354.806 108.636L340.448 124.567L339.323 125.816L340.599 126.91C341.32 127.528 341.999 128.176 342.636 128.854L343.121 129.371H343.831H361.342Z" fill="white" stroke="white" stroke-width="3.27926"/>
<path d="M404.13 234.26L389.492 219.622C395.413 218.291 399.805 212.968 399.805 206.647C399.805 199.328 393.816 193.34 386.497 193.34C380.176 193.34 374.92 197.731 373.523 203.653L358.885 189.015C357.554 187.684 355.491 187.684 354.161 189.015L339.523 203.653C345.511 205.05 349.902 210.307 349.902 216.628C349.902 223.947 343.914 229.935 336.595 229.935C330.274 229.935 325.018 225.544 323.62 219.622L308.982 234.26C307.652 235.591 307.652 237.653 308.982 238.984L323.62 253.622C317.699 254.953 313.307 260.276 313.307 266.597C313.307 273.916 319.296 279.904 326.615 279.904C332.936 279.904 338.192 275.513 339.589 269.591L354.227 284.229C355.558 285.56 357.621 285.56 358.951 284.229L373.589 269.591C367.601 268.127 363.21 262.871 363.21 256.55C363.21 249.231 369.198 243.242 376.517 243.242C382.838 243.242 388.094 247.634 389.492 253.556L404.13 238.918C405.394 237.653 405.394 235.524 404.13 234.26Z" stroke="white" stroke-width="6.65365" stroke-linejoin="round"/>
</svg>
