<svg width="571" height="571" viewBox="0 0 571 571" fill="none" xmlns="http://www.w3.org/2000/svg">
<circle cx="286" cy="285" r="284" fill="white"/>
<path d="M275.106 331.387C273.687 331.648 272.313 331.598 271.254 331.338C267.448 330.168 264.544 328.124 260.747 321.239C256.848 314.069 251.495 311.364 246.356 308.72C241.943 306.449 237.365 304.106 232.731 298.437C229.274 294.219 226.91 289.345 226.072 284.797C223.55 271.104 232.328 258.363 246.021 255.84C259.715 253.318 272.456 262.096 274.978 275.789L284.759 273.988C281.219 254.768 263.44 242.519 244.22 246.059C225 249.599 212.751 267.379 216.291 286.599C217.426 292.761 220.537 299.217 225.037 304.708C230.974 311.958 236.955 315.053 241.813 317.546C246.333 319.849 249.575 321.527 252.022 326.032C256.596 334.392 261.281 338.687 268.572 340.934C271.798 341.725 275.171 341.694 278.383 340.847C281.595 339.999 284.543 338.36 286.959 336.08C289.375 333.799 291.181 330.95 292.213 327.793C293.245 324.635 293.47 321.27 292.866 318.003L283.085 319.804C284.076 325.184 280.485 330.396 275.106 331.387ZM213.692 254.918L205.468 249.253C197.529 260.778 193.99 275.335 196.729 290.202C199.467 305.069 207.96 317.41 219.485 325.35L225.11 317.184C215.719 310.672 208.753 300.578 206.51 288.4C204.267 276.223 207.18 264.309 213.692 254.918ZM238.299 282.545C238.896 285.788 240.757 288.66 243.472 290.531C246.187 292.402 249.535 293.117 252.777 292.52C256.02 291.922 258.892 290.061 260.763 287.346C262.634 284.631 263.349 281.284 262.752 278.041C262.154 274.799 260.293 271.926 257.578 270.055C254.863 268.185 251.516 267.469 248.273 268.067C245.031 268.664 242.158 270.525 240.287 273.24C238.417 275.955 237.702 279.303 238.299 282.545Z" fill="#011933" fill-opacity="0.984314"/>
<path d="M270.523 333.715L270.592 333.736L270.661 333.753C272.095 334.105 273.827 334.151 275.556 333.832C281.449 332.747 285.62 327.621 285.734 321.845L290.697 320.931C290.778 322.988 290.493 325.051 289.85 327.021C288.947 329.783 287.366 332.276 285.252 334.271C283.139 336.267 280.559 337.701 277.748 338.442C274.961 339.178 272.035 339.21 269.233 338.536C262.764 336.524 258.544 332.771 254.205 324.841C251.369 319.624 247.489 317.647 243.018 315.37L242.948 315.334C242.947 315.333 242.946 315.333 242.945 315.332C238.151 312.872 232.557 309.967 226.961 303.133L226.96 303.132C222.692 297.924 219.786 291.847 218.737 286.148C215.445 268.279 226.801 251.796 244.67 248.504C261.716 245.365 277.5 255.553 281.776 272.009L276.867 272.913C273.109 259.271 259.79 250.776 245.571 253.395C230.527 256.166 220.856 270.203 223.627 285.248C224.552 290.271 227.127 295.522 230.807 300.012C235.749 306.057 240.689 308.599 245.116 310.878L245.218 310.931L245.219 310.931L245.25 310.947C250.362 313.577 255.065 315.997 258.563 322.427L258.566 322.433L258.57 322.44C260.536 326.007 262.368 328.501 264.328 330.275C266.336 332.093 268.361 333.05 270.523 333.715ZM218.881 321.843C208.908 314.252 201.626 303.065 199.174 289.752C196.722 276.438 199.54 263.392 206.154 252.744L210.282 255.588C204.375 265.152 201.861 276.884 204.065 288.851C206.27 300.822 212.803 310.887 221.693 317.762L218.881 321.843ZM244.883 288.483C242.711 286.987 241.222 284.689 240.744 282.095C240.266 279.501 240.839 276.823 242.335 274.651C243.831 272.479 246.13 270.99 248.724 270.512C251.318 270.034 253.995 270.607 256.168 272.103C258.34 273.599 259.829 275.897 260.306 278.492C260.784 281.086 260.212 283.763 258.715 285.936C257.219 288.108 254.921 289.597 252.327 290.074C249.733 290.552 247.055 289.98 244.883 288.483Z" stroke="#011933" stroke-opacity="0.984314" stroke-width="4.97284"/>
<path d="M156.993 279.123C156.993 267.246 147.374 257.626 135.497 257.626C123.62 257.626 114 267.246 114 279.123V398.16C114 411.864 119.428 424.977 129.101 434.651L182.789 488.339C189.238 494.788 197.998 498.388 207.134 498.388H242.98C257.221 498.388 268.776 486.834 268.776 472.592V430.19C268.776 414.229 262.434 398.913 251.149 387.627L237.552 374.03L229.383 365.862L212.186 348.664C205.468 341.947 194.559 341.947 187.841 348.664C181.123 355.382 181.123 366.292 187.841 373.009L205.038 390.207L213.207 398.375C219.119 404.287 218.151 414.068 211.219 418.69C206.006 422.183 199.019 421.484 194.559 417.024L167.043 389.562C160.594 383.113 156.993 374.353 156.993 365.217V279.123ZM414.953 279.123V365.217C414.953 374.353 411.352 383.113 404.903 389.562L377.441 417.024C372.981 421.484 365.994 422.183 360.781 418.69C353.849 414.068 352.881 404.233 358.793 398.375L366.962 390.207L384.159 373.009C390.877 366.292 390.877 355.382 384.159 348.664C377.441 341.947 366.532 341.947 359.814 348.664L342.617 365.862L334.448 374.03L320.851 387.627C309.566 398.913 303.224 414.229 303.224 430.19V472.592C303.224 486.834 314.779 498.388 329.02 498.388H364.866C374.002 498.388 382.762 494.788 389.211 488.339L442.899 434.651C452.572 424.977 458 411.864 458 398.16L457.946 343.613V279.123C457.946 267.246 448.327 257.626 436.45 257.626C424.573 257.626 414.953 267.246 414.953 279.123Z" fill="#011933" fill-opacity="0.984314"/>
<path d="M166.853 389.752L166.853 389.752C160.353 383.252 156.725 374.423 156.725 365.217V279.123C156.725 267.394 147.225 257.895 135.497 257.895C123.768 257.895 114.269 267.394 114.269 279.123V398.16C114.269 411.793 119.668 424.838 129.291 434.461L182.979 488.149C189.377 494.547 198.069 498.12 207.134 498.12H242.98C257.073 498.12 268.507 486.686 268.507 472.592V430.19C268.507 414.3 262.194 399.052 250.959 387.817L237.362 374.22L229.193 366.052L211.996 348.854C205.383 342.241 194.644 342.241 188.031 348.854C181.418 355.467 181.418 366.206 188.031 372.819L205.228 390.017L213.397 398.185C219.428 404.216 218.442 414.197 211.368 418.913C206.048 422.478 198.919 421.764 194.369 417.214C194.369 417.214 194.369 417.214 194.369 417.214M166.853 389.752L194.559 417.024L194.369 417.214M166.853 389.752L194.369 417.214M166.853 389.752L194.369 417.214M415.222 365.217V279.123C415.222 267.394 424.721 257.895 436.45 257.895C448.178 257.895 457.678 267.394 457.678 279.123V343.613L457.731 398.16C457.731 411.793 452.332 424.838 442.709 434.461L389.021 488.149C382.623 494.547 373.931 498.12 364.866 498.12H329.02C314.927 498.12 303.493 486.686 303.493 472.592V430.19C303.493 414.3 309.806 399.052 321.041 387.817L334.638 374.22L342.807 366.052L360.004 348.854C366.617 342.241 377.356 342.241 383.969 348.854C390.582 355.467 390.582 366.206 383.969 372.819L366.772 390.017L358.604 398.184C352.571 404.162 353.559 414.197 360.632 418.913C365.952 422.478 373.081 421.764 377.631 417.214L405.093 389.752C411.593 383.252 415.222 374.423 415.222 365.217Z" stroke="#011933" stroke-opacity="0.984314" stroke-width="0.537416"/>
<path d="M225.896 205.885C246.114 203.44 262.247 190.105 269.24 172.438C258.238 156.946 239.393 147.839 219.174 150.284C198.956 152.728 182.823 166.063 175.83 183.73C186.832 199.222 205.677 208.329 225.896 205.885ZM218.563 145.229C241.612 142.443 263.147 153.43 274.901 171.754C267.852 192.35 249.556 208.153 226.507 210.939C203.458 213.726 181.923 202.738 170.169 184.415C177.218 163.818 195.514 148.015 218.563 145.229ZM219.785 155.338C232.422 153.811 243.753 162.698 245.281 175.334C246.808 187.971 237.921 199.302 225.285 200.83C212.648 202.358 201.317 193.47 199.789 180.834C198.262 168.197 207.149 156.866 219.785 155.338ZM220.396 160.393C215.704 160.96 211.43 163.368 208.513 167.087C205.597 170.806 204.277 175.531 204.844 180.223C205.411 184.915 207.819 189.189 211.538 192.106C215.257 195.023 219.982 196.343 224.674 195.775C229.366 195.208 233.64 192.8 236.557 189.081C239.474 185.363 240.793 180.637 240.226 175.945C239.659 171.253 237.251 166.979 233.532 164.062C229.813 161.146 225.088 159.826 220.396 160.393Z" fill="#011933" fill-opacity="0.984314" stroke="#011933" stroke-opacity="0.984314" stroke-width="1.47031"/>
<path d="M322.899 171.297C318.317 171.293 313.83 169.996 309.953 167.554C306.076 165.112 302.968 161.625 300.986 157.494C299.004 153.363 298.229 148.757 298.75 144.205C299.271 139.653 301.067 135.34 303.932 131.764L299.207 127.039C294.205 132.965 291.61 140.552 291.935 148.299C292.261 156.047 295.483 163.39 300.964 168.875C306.445 174.36 313.785 177.588 321.533 177.919C329.28 178.25 336.869 175.661 342.798 170.664L338.073 165.939C333.771 169.397 328.419 171.287 322.899 171.297Z" fill="#011933" fill-opacity="0.984314"/>
<path d="M322.898 172.96L322.902 172.96C328.3 172.951 333.547 171.259 337.921 168.14L340.301 170.52C334.925 174.507 328.327 176.544 321.604 176.257C314.273 175.943 307.327 172.889 302.141 167.699C296.955 162.509 293.906 155.56 293.598 148.229C293.315 141.505 295.358 134.908 299.35 129.536L301.732 131.918C299.195 135.488 297.597 139.648 297.097 144.015C296.54 148.879 297.368 153.8 299.486 158.214C301.603 162.627 304.924 166.353 309.066 168.962C313.208 171.571 318.003 172.957 322.898 172.96Z" stroke="#011933" stroke-opacity="0.984314" stroke-width="3.32763"/>
<path d="M362.427 72.0001C360.372 71.9935 358.362 72.5968 356.65 73.7336C354.938 74.8704 353.603 76.4895 352.812 78.386C352.021 80.2826 351.81 82.3711 352.207 84.3872C352.604 86.4034 353.59 88.2564 355.041 89.7117C356.491 91.167 358.341 92.1592 360.356 92.5625C362.371 92.9658 364.46 92.7621 366.359 91.9773C368.258 91.1925 369.882 89.8618 371.024 88.1537C372.166 86.4457 372.776 84.4371 372.776 82.3823C372.776 79.6345 371.687 76.9988 369.747 75.0527C367.807 73.1066 365.175 72.0089 362.427 72.0001Z" fill="#011933" fill-opacity="0.984314"/>
<path d="M357.571 75.1196C359.008 74.1649 360.696 73.6583 362.422 73.6639C364.729 73.6713 366.94 74.5931 368.569 76.2273C370.198 77.8615 371.112 80.0748 371.112 82.3822C371.112 84.1078 370.6 85.7945 369.641 87.2288C368.682 88.6631 367.319 89.7806 365.724 90.4396C364.129 91.0987 362.375 91.2697 360.683 90.931C358.991 90.5923 357.437 89.7592 356.219 88.5371C355.001 87.315 354.173 85.759 353.84 84.0659C353.506 82.3729 353.683 80.619 354.347 79.0265C355.011 77.4339 356.133 76.0742 357.571 75.1196Z" stroke="#011933" stroke-opacity="0.984314" stroke-width="3.32763"/>
<path d="M362.961 125.509H345.192C344.504 124.777 343.772 124.078 342.995 123.412L357.57 107.24C358.269 106.45 358.784 105.515 359.078 104.502C359.371 103.488 359.436 102.423 359.267 101.382C359.098 100.34 358.7 99.3496 358.102 98.4809C357.503 97.6123 356.719 96.8874 355.807 96.3587L343.295 89.0712L330.483 81.8836C329.911 81.557 329.254 81.408 328.596 81.4554C327.939 81.5028 327.31 81.7445 326.79 82.1498L310.85 94.6284C310.153 95.1711 309.7 95.9686 309.591 96.8454C309.482 97.7222 309.725 98.6065 310.268 99.3037C310.811 100.001 311.608 100.454 312.485 100.563C313.362 100.672 314.246 100.429 314.943 99.886L329.152 88.7718L338.703 94.1958L319.003 116.225C313.635 116.921 308.541 119.009 304.229 122.281L308.954 127.039C313.632 123.752 319.321 122.219 325.017 122.713C330.714 123.206 336.055 125.694 340.098 129.737C344.141 133.781 346.629 139.121 347.122 144.818C347.616 150.515 346.084 156.203 342.796 160.881L347.554 165.64C351.195 160.92 353.39 155.247 353.874 149.306C354.358 143.365 353.111 137.411 350.283 132.164H359.401L356.838 153.827C356.735 154.7 356.981 155.579 357.524 156.271C358.066 156.963 358.861 157.412 359.733 157.521H360.133C360.95 157.526 361.741 157.231 362.355 156.691C362.969 156.151 363.362 155.404 363.46 154.592L366.455 129.236C366.508 128.769 366.461 128.296 366.317 127.849C366.174 127.401 365.937 126.99 365.623 126.64C365.293 126.263 364.882 125.966 364.422 125.77C363.961 125.574 363.461 125.485 362.961 125.509Z" fill="#011933" fill-opacity="0.984314"/>
<path d="M362.961 127.173H363.001L363.041 127.171C363.291 127.159 363.54 127.203 363.771 127.301C364.001 127.399 364.207 127.548 364.372 127.736L364.379 127.744L364.386 127.752C364.543 127.927 364.661 128.133 364.733 128.357C364.804 128.579 364.828 128.814 364.802 129.046C364.802 129.048 364.802 129.049 364.802 129.05L361.808 154.393C361.808 154.393 361.808 154.393 361.808 154.394C361.759 154.799 361.562 155.172 361.256 155.442C360.949 155.712 360.553 155.86 360.145 155.857H360.133H359.854C359.451 155.786 359.087 155.568 358.833 155.245C358.562 154.899 358.439 154.459 358.491 154.023L358.491 154.022L361.053 132.359L361.273 130.5H359.401H350.283H347.496L348.818 132.953C351.494 137.917 352.674 143.55 352.216 149.171C351.809 154.158 350.128 158.946 347.348 163.081L344.934 160.667C347.909 155.905 349.267 150.293 348.78 144.674C348.253 138.587 345.595 132.881 341.275 128.561C336.954 124.24 331.248 121.583 325.161 121.055C319.544 120.569 313.934 121.925 309.173 124.899L306.793 122.502C310.52 120.038 314.769 118.451 319.217 117.875L319.831 117.795L320.243 117.334L339.943 95.3049L341.318 93.7675L339.524 92.749L329.974 87.325L329.005 86.7747L328.127 87.4612L313.921 98.5731C313.921 98.5734 313.921 98.5737 313.92 98.574C313.571 98.8451 313.129 98.9667 312.691 98.9121C312.252 98.8574 311.853 98.6306 311.581 98.2816C311.309 97.9326 311.187 97.49 311.242 97.0511C311.297 96.6122 311.524 96.213 311.873 95.9413L311.876 95.9385L327.813 83.4621C327.813 83.4618 327.813 83.4616 327.814 83.4613C328.073 83.2591 328.387 83.1386 328.716 83.1149C329.045 83.0912 329.373 83.1657 329.659 83.329L329.659 83.329L329.669 83.3346L342.469 90.5157L354.969 97.7965L354.973 97.7985C355.672 98.2036 356.273 98.7591 356.732 99.4248C357.19 100.091 357.495 100.85 357.625 101.648C357.754 102.446 357.704 103.262 357.479 104.039C357.255 104.813 356.862 105.528 356.329 106.132L341.759 122.298L340.617 123.566L341.913 124.676C342.644 125.303 343.333 125.96 343.979 126.648L344.472 127.173H345.192H362.961Z" stroke="#011933" stroke-opacity="0.984314" stroke-width="3.32763"/>
<path d="M406.38 233.609L391.526 218.755C397.535 217.405 401.991 212.003 401.991 205.589C401.991 198.162 395.914 192.086 388.487 192.086C382.073 192.086 376.739 196.542 375.322 202.551L360.468 187.697C359.117 186.346 357.024 186.346 355.674 187.697L340.82 202.551C346.896 203.969 351.353 209.303 351.353 215.717C351.353 223.144 345.276 229.22 337.849 229.22C331.435 229.22 326.101 224.764 324.683 218.755L309.829 233.609C308.479 234.959 308.479 237.052 309.829 238.403L324.683 253.257C318.674 254.607 314.218 260.008 314.218 266.423C314.218 273.85 320.294 279.926 327.721 279.926C334.136 279.926 339.47 275.47 340.887 269.461L355.741 284.315C357.092 285.665 359.185 285.665 360.535 284.315L375.389 269.461C369.312 267.976 364.856 262.642 364.856 256.227C364.856 248.801 370.933 242.724 378.36 242.724C384.774 242.724 390.108 247.18 391.526 253.189L406.38 238.335C407.663 237.052 407.663 234.892 406.38 233.609Z" stroke="#011933" stroke-opacity="0.984314" stroke-width="6.75179" stroke-linejoin="round"/>
</svg>
