<svg width="2556" height="2556" viewBox="0 0 2556 2556" fill="none" xmlns="http://www.w3.org/2000/svg">
<circle cx="1278" cy="1278" r="1278" fill="#011C37"/>
<circle cx="1278" cy="2231.39" r="178.92" fill="#FFD700"/>
<circle cx="2026.91" cy="1899.11" r="178.92" fill="#EDF1F4"/>
<circle cx="2251.83" cy="1278" r="178.92" fill="#EDF1F4"/>
<ellipse cx="2024.35" cy="660.726" rx="176.364" ry="177.642" fill="#FFD700"/>
<circle cx="1679.29" cy="431.965" r="79.236" fill="#FFD700"/>
<ellipse cx="1281.84" cy="343.782" rx="180.198" ry="177.642" fill="#EDF1F4"/>
<ellipse cx="1277.64" cy="1278.03" rx="508.644" ry="515.034" fill="#4FBCFE"/>
<ellipse cx="1273.93" cy="1283.15" rx="397.575" ry="402.57" fill="#509CBE"/>
<ellipse cx="1277.78" cy="1283.15" rx="294.08" ry="297.774" fill="#011C37"/>
<rect x="677.34" y="1019.84" width="1237.1" height="408.96" fill="#011C37"/>
<path d="M983.775 1167.48C983.775 1186.48 980.717 1202.42 974.599 1215.3C968.481 1228.18 959.948 1238.65 949 1246.69C938.052 1254.74 924.85 1260.54 909.394 1264.08C894.26 1267.62 877.677 1269.56 859.646 1269.88H791.06V1399.32H714.264V1046.73H859.163C870.754 1046.73 883.634 1048.02 897.802 1050.6C912.292 1052.85 925.816 1058.17 938.374 1066.54C951.254 1074.59 962.041 1086.66 970.735 1102.76C979.429 1118.54 983.775 1140.11 983.775 1167.48ZM852.401 1224.48C871.398 1224.48 886.049 1219.97 896.353 1210.95C906.979 1201.94 912.292 1187.77 912.292 1168.45C912.292 1149.13 907.945 1134.8 899.251 1125.46C890.557 1116.13 876.389 1111.3 856.748 1110.97H791.06V1224.48H852.401ZM1094.83 1399.32H1024.31V1047.7H1094.83V1399.32ZM1223.36 1399.32H1137.87V1047.22H1223.36L1351.36 1291.13V1047.22H1421.88V1399.32H1347.49L1223.36 1179.08V1399.32ZM1524.3 1399.32H1446.54L1572.12 1047.22H1640.22L1764.83 1399.32H1700.59L1678.86 1326.39H1548.45L1524.3 1399.32ZM1567.77 1284.85H1658.09L1614.14 1135.61H1613.17L1567.77 1284.85ZM1872.15 1399.32H1801.63V1047.7H1872.15V1399.32Z" fill="white"/>
<circle cx="1309.95" cy="259.433" r="19.17" fill="#011C37"/>
<path d="M1298.45 460.079L1297.17 396.179L1253.72 424.295V463.913C1244.52 477.205 1231.14 469.451 1225.6 463.913L1226.88 410.237H1185.98C1172.69 400.013 1180.45 388.085 1185.98 383.399H1234.55C1247.84 380.332 1281.83 341.225 1297.17 322.055H1258.83C1255.76 337.391 1246.48 342.077 1242.22 342.503C1213.59 325.123 1231.99 302.885 1244.77 293.939H1307.39L1363.63 347.615C1362.6 363.974 1351.27 365.507 1345.73 364.229L1327.84 350.171L1330.4 460.079C1316.08 479.505 1303.13 468.173 1298.45 460.079Z" fill="#011C37" stroke="#011C37" stroke-width="2.556"/>
<circle cx="1679.29" cy="431.965" r="51.12" fill="#011C37"/>
<path d="M1651.18 498.42H1676.74V564.876C1676.74 571.934 1671.01 577.656 1663.96 577.656C1656.9 577.656 1651.18 571.934 1651.18 564.876V498.42Z" fill="#FFD700"/>
<path d="M861.183 481.523C866.174 485.723 871.379 489.562 876.708 493.308C882.048 489.611 887.228 485.679 892.233 481.523C900.576 474.537 908.428 466.961 915.73 458.853C932.565 440.08 950.832 412.865 950.832 382.316C950.832 372.388 948.915 362.558 945.19 353.386C941.465 344.215 936.005 335.881 929.122 328.861C922.239 321.842 914.067 316.273 905.074 312.474C896.081 308.675 886.442 306.72 876.708 306.72C866.974 306.72 857.335 308.675 848.342 312.474C839.349 316.273 831.177 321.842 824.294 328.861C817.411 335.881 811.951 344.215 808.226 353.386C804.501 362.558 802.584 372.388 802.584 382.316C802.584 412.865 820.851 440.071 837.686 458.853C844.988 466.964 852.84 474.534 861.183 481.523ZM876.708 409.614C869.609 409.614 862.801 406.738 857.781 401.619C852.761 396.499 849.941 389.556 849.941 382.316C849.941 375.076 852.761 368.132 857.781 363.013C862.801 357.893 869.609 355.017 876.708 355.017C883.807 355.017 890.615 357.893 895.635 363.013C900.655 368.132 903.475 375.076 903.475 382.316C903.475 389.556 900.655 396.499 895.635 401.619C890.615 406.738 883.807 409.614 876.708 409.614Z" fill="#FFD700"/>
<circle cx="1988.57" cy="608.327" r="38.34" fill="#011C37"/>
<rect x="1947.67" y="736.089" width="170.05" height="30.8045" rx="15.4023" transform="rotate(-43.7247 1947.67 736.089)" fill="#011C37"/>
<rect x="2033.37" y="662.113" width="111.295" height="30.8045" rx="15.4023" transform="rotate(42.6692 2033.37 662.113)" fill="#011C37"/>
<circle cx="2250.56" cy="1281.83" r="19.17" fill="#011C37"/>
<circle cx="2248" cy="1281.83" r="85.626" fill="#011C37"/>
<path d="M2236.5 1362.35H2264.62V1396.86C2264.62 1404.62 2258.32 1410.91 2250.56 1410.91C2242.79 1410.91 2236.5 1404.62 2236.5 1396.86V1362.35Z" fill="#011C37"/>
<path d="M2323.41 1293.34V1265.22H2357.91C2365.68 1265.22 2371.97 1271.51 2371.97 1279.28C2371.97 1287.04 2365.68 1293.34 2357.91 1293.34H2323.41Z" fill="#011C37"/>
<path d="M2264.62 1203.88H2236.5V1169.37C2236.5 1161.6 2242.8 1155.31 2250.56 1155.31C2258.32 1155.31 2264.62 1161.6 2264.62 1169.37V1203.88Z" fill="#011C37"/>
<path d="M2175.16 1262.66V1290.78H2140.65C2132.89 1290.78 2126.59 1284.49 2126.59 1276.72C2126.59 1268.96 2132.89 1262.66 2140.65 1262.66H2175.16Z" fill="#011C37"/>
<circle cx="549.541" cy="1899.11" r="178.92" fill="#EDF1F4"/>
<circle cx="322.056" cy="1275.44" r="178.92" fill="#EDF1F4"/>
<circle cx="549.541" cy="662.004" r="178.92" fill="#FFD700"/>
<path d="M1240.26 2212.66C1229.23 2218.89 1220.05 2227.93 1213.66 2238.87C1207.27 2249.81 1203.89 2262.25 1203.88 2274.92C1203.85 2284.3 1205.69 2293.59 1209.28 2302.26C1212.87 2310.93 1218.15 2318.8 1224.8 2325.42C1231.42 2332.07 1239.29 2337.35 1247.96 2340.94C1256.63 2344.53 1265.92 2346.37 1275.31 2346.34C1308.48 2346.34 1337.05 2323.84 1344.77 2291.62L1332.55 2288.69C1329.48 2301.56 1322.16 2313.02 1311.77 2321.2C1301.38 2329.38 1288.53 2333.81 1275.3 2333.78C1267.57 2333.8 1259.91 2332.28 1252.76 2329.32C1245.62 2326.36 1239.13 2322.02 1233.68 2316.53C1228.2 2311.08 1223.85 2304.59 1220.89 2297.45C1217.93 2290.31 1216.42 2282.65 1216.44 2274.92C1216.45 2264.47 1219.23 2254.22 1224.5 2245.21C1229.77 2236.19 1237.34 2228.74 1246.43 2223.61L1240.26 2212.66ZM1385.79 2301.02L1372.68 2306.26L1337.43 2240.35H1265.48L1263.12 2218.64L1318.68 2218.66L1318.68 2206.1L1261.76 2206.07L1256.57 2158.29C1258.95 2158.89 1261.41 2159.06 1263.84 2158.77C1266.45 2158.46 1268.97 2157.64 1271.26 2156.35C1273.55 2155.07 1275.56 2153.34 1277.18 2151.28C1278.81 2149.21 1280.01 2146.85 1280.71 2144.32C1281.42 2141.79 1281.63 2139.15 1281.31 2136.54C1281 2133.94 1280.18 2131.42 1278.89 2129.13C1277.61 2126.84 1275.88 2124.82 1273.82 2123.2C1271.76 2121.58 1269.39 2120.38 1266.87 2119.67C1264.34 2118.96 1261.7 2118.75 1259.09 2119.07C1256.48 2119.38 1253.96 2120.2 1251.67 2121.49C1249.38 2122.77 1247.37 2124.5 1245.75 2126.56C1244.12 2128.62 1242.92 2130.99 1242.22 2133.51C1241.51 2136.04 1241.3 2138.69 1241.61 2141.29C1241.8 2142.89 1242.2 2144.41 1242.73 2145.85L1242.59 2145.86L1253.6 2247.31L1254.21 2252.92H1329.91L1366.92 2322.1L1390.46 2312.68L1385.79 2301.02L1385.79 2301.02Z" fill="#011C37"/>
<path d="M570.642 1922.51C576.354 1916.61 579.518 1908.7 579.452 1900.49C579.385 1892.28 576.094 1884.42 570.287 1878.62C564.48 1872.81 556.623 1869.52 548.411 1869.45C540.199 1869.38 532.291 1872.55 526.391 1878.26M495.912 1847.78L601.12 1952.99M472.796 1873.23L569.845 1970.28M431.963 1900.39C444.357 1900.39 456.245 1910.1 465.958 1919.81L491.269 1948.44C498.609 1956.26 507.476 1962.5 517.323 1966.77C527.169 1971.03 537.786 1973.23 548.516 1973.23C559.247 1973.23 569.863 1971.03 579.71 1966.77C589.556 1962.5 598.423 1956.26 605.763 1948.44L631.074 1919.81C640.787 1910.1 652.676 1900.39 665.069 1900.39C652.676 1900.39 640.787 1890.67 631.074 1880.96L605.763 1852.34C598.423 1844.51 589.556 1838.27 579.71 1834.01C569.863 1829.74 559.247 1827.54 548.516 1827.54C537.786 1827.54 527.169 1829.74 517.323 1834.01C507.476 1838.27 498.609 1844.51 491.269 1852.34L465.958 1880.96C456.245 1890.67 444.357 1900.39 431.963 1900.39Z" stroke="#011C37" stroke-width="9.71273"/>
<path d="M2073.09 1997.89C2069.91 1997.89 2066.95 1997.23 2064.76 1996.25C2056.97 1992.19 2051.49 1986.6 2046 1970.15C2040.41 1953.04 2029.88 1945.03 2019.79 1937.25C2011.13 1930.56 2002.14 1923.65 1994.35 1909.5C1988.54 1898.97 1985.36 1887.46 1985.36 1877.26C1985.36 1846.55 2009.48 1822.42 2040.19 1822.42C2068.27 1822.42 2090.97 1842.71 2094.48 1869.69C2095.14 1874.08 2098.97 1877.26 2103.47 1877.26H2107.2C2112.68 1877.26 2116.96 1872.43 2116.3 1866.95C2111.37 1828.89 2079.78 1800.49 2040.19 1800.49C1997.09 1800.49 1963.42 1834.16 1963.42 1877.26C1963.42 1891.08 1967.59 1906.32 1975.16 1920.03C1985.14 1938.12 1996.87 1947.23 2006.41 1954.57C2015.3 1961.37 2021.66 1966.31 2025.17 1977.06C2031.75 1997.02 2040.19 2008.2 2055.11 2015.99C2060.88 2018.58 2067.14 2019.89 2073.47 2019.84C2079.79 2019.78 2086.03 2018.36 2091.76 2015.68C2097.48 2012.99 2102.56 2009.1 2106.65 2004.27C2110.73 1999.44 2113.73 1993.79 2115.42 1987.69C2115.8 1986.32 2115.86 1984.88 2115.59 1983.48C2115.33 1982.08 2114.74 1980.77 2113.88 1979.63C2113.02 1978.5 2111.91 1977.58 2110.64 1976.94C2109.37 1976.3 2107.96 1975.97 2106.54 1975.96H2102.7C2098.54 1975.96 2095.25 1978.92 2093.82 1982.87C2090.97 1991.53 2082.74 1997.89 2073.09 1997.89ZM1963.09 1800.16C1962 1799.06 1960.69 1798.19 1959.25 1797.63C1957.8 1797.06 1956.25 1796.81 1954.7 1796.88C1953.15 1796.95 1951.63 1797.35 1950.24 1798.05C1948.85 1798.75 1947.63 1799.73 1946.64 1800.93C1929.76 1821.77 1919.56 1848.31 1919.56 1877.26C1919.56 1906.21 1929.76 1932.75 1946.64 1953.48C1950.81 1958.52 1958.38 1958.96 1962.99 1954.35C1966.93 1950.41 1967.26 1944.16 1963.75 1939.88C1949.93 1922.88 1941.49 1901.06 1941.49 1877.26C1941.49 1853.46 1949.93 1831.64 1963.86 1814.75C1967.48 1810.36 1967.04 1804.11 1963.09 1800.16ZM2012.77 1877.26C2012.77 1884.53 2015.66 1891.5 2020.81 1896.64C2025.95 1901.79 2032.92 1904.67 2040.19 1904.67C2047.46 1904.67 2054.44 1901.79 2059.58 1896.64C2064.72 1891.5 2067.61 1884.53 2067.61 1877.26C2067.61 1869.99 2064.72 1863.01 2059.58 1857.87C2054.44 1852.73 2047.46 1849.84 2040.19 1849.84C2032.92 1849.84 2025.95 1852.73 2020.81 1857.87C2015.66 1863.01 2012.77 1869.99 2012.77 1877.26Z" fill="#011C37"/>
<path d="M454.967 643.017H517.631M468.894 643.017V687.734C468.898 692.354 470.736 696.783 474.004 700.048C477.272 703.313 481.703 705.147 486.322 705.147C495.932 705.147 503.719 697.343 503.719 687.718V643.033M486.103 705.194V738.763M475.85 739.014H496.732M555.549 608.757C559.494 608.848 563.417 608.15 567.089 606.703C570.76 605.256 574.105 603.09 576.927 600.332C579.75 597.574 581.992 594.279 583.523 590.642C585.054 587.005 585.843 583.099 585.843 579.153C585.843 575.207 585.054 571.3 583.523 567.663C581.992 564.026 579.75 560.732 576.927 557.974C574.105 555.216 570.76 553.05 567.089 551.603C563.417 550.156 559.494 549.458 555.549 549.548C547.695 549.548 540.163 552.668 534.61 558.222C529.056 563.775 525.936 571.307 525.936 579.161C525.936 587.014 529.056 594.546 534.61 600.1C540.163 605.653 547.695 608.757 555.549 608.757Z" stroke="#011C37" stroke-width="15.7011" stroke-linecap="round" stroke-linejoin="round"/>
<path d="M525.937 618.068C533.707 612.657 542.812 609.478 552.262 608.877C561.712 608.276 571.146 610.277 579.539 614.661C587.932 619.045 594.964 625.645 599.869 633.745C604.774 641.845 607.366 651.134 607.363 660.603V682.804H585.177L577.766 742.029H533.332L527.162 692.633" stroke="#011C37" stroke-width="15.7011" stroke-linecap="round" stroke-linejoin="round"/>
<path d="M323.166 1204.68C317.526 1204.68 312.013 1203 307.323 1199.87C302.634 1196.74 298.979 1192.28 296.821 1187.07C294.663 1181.86 294.098 1176.13 295.198 1170.6C296.299 1165.07 299.014 1159.98 303.002 1156C306.99 1152.01 312.071 1149.29 317.603 1148.19C323.134 1147.09 328.868 1147.66 334.078 1149.82C339.289 1151.97 343.742 1155.63 346.875 1160.32C350.009 1165.01 351.681 1170.52 351.681 1176.16C351.673 1183.72 348.666 1190.97 343.32 1196.31C337.974 1201.66 330.726 1204.67 323.166 1204.68Z" fill="#011C37"/>
<path d="M412.79 1205.08L412.561 1205.14L412.347 1205.21C411.837 1205.35 411.328 1205.51 410.819 1205.66C401.343 1208.44 355.352 1221.41 322.951 1221.41C292.842 1221.41 251.011 1210.21 237.629 1206.4C236.297 1205.89 234.937 1205.45 233.555 1205.09C223.88 1202.54 217.261 1212.37 217.261 1221.35C217.261 1230.25 225.255 1234.48 233.326 1237.52V1237.67L281.812 1252.81C286.767 1254.71 288.091 1256.65 288.738 1258.33C290.841 1263.72 289.16 1274.4 288.564 1278.13L285.611 1301.04L269.22 1390.76C269.169 1391 269.123 1391.25 269.082 1391.51L268.965 1392.15C267.784 1400.38 273.823 1408.36 285.26 1408.36C295.24 1408.36 299.645 1401.47 301.554 1392.09C303.464 1382.72 315.812 1311.86 322.941 1311.86C330.07 1311.86 344.755 1392.09 344.755 1392.09C346.665 1401.47 351.069 1408.36 361.05 1408.36C372.517 1408.36 378.556 1400.34 377.344 1392.09C377.24 1391.4 377.111 1390.71 376.957 1390.02L360.342 1301.05L357.393 1278.14C355.26 1264.79 356.976 1260.38 357.556 1259.35C357.572 1259.32 357.586 1259.3 357.597 1259.27C358.147 1258.25 360.652 1255.97 366.498 1253.78L411.96 1237.89C412.239 1237.81 412.514 1237.72 412.785 1237.62C420.932 1234.57 429.079 1230.34 429.079 1221.36C429.079 1212.38 422.465 1202.54 412.79 1205.08Z" fill="#011C37"/>
<ellipse cx="311.832" cy="936.773" rx="33.228" ry="31.95" fill="#FFD700"/>
<ellipse cx="516.312" cy="980.226" rx="33.228" ry="31.95" fill="#4FBCFE"/>
<ellipse cx="1543.82" cy="274.769" rx="33.228" ry="31.95" fill="#4FBCFE"/>
<ellipse cx="516.312" cy="1588.55" rx="33.228" ry="31.95" fill="#FFD700"/>
<ellipse cx="2057.58" cy="980.226" rx="33.228" ry="31.95" fill="#4FBCFE"/>
<ellipse cx="2259.61" cy="949.947" rx="25.6622" ry="24.6752" fill="#FFD700"/>
<ellipse cx="357.84" cy="1611.85" rx="25.56" ry="24.5769" fill="#4FBCFE"/>
<ellipse cx="281.159" cy="1619.52" rx="25.56" ry="24.5769" fill="#EDF1F4"/>
<ellipse cx="1518.26" cy="456.541" rx="25.56" ry="24.5769" fill="#EDF1F4"/>
<circle cx="922.715" cy="2049.91" r="15.336" fill="#FFD700"/>
<circle cx="853.705" cy="2172.6" r="15.336" fill="#FFD700"/>
<circle cx="820.476" cy="2213.5" r="15.336" fill="#FFD700"/>
<circle cx="943.164" cy="2223.72" r="15.336" fill="#FFD700"/>
<path d="M886.725 2076.39C891.12 2072.31 897.957 2072.44 902.199 2076.68L911.494 2085.98C915.463 2089.95 920.595 2092.55 926.143 2093.4L942.325 2095.89C947.219 2096.64 950.832 2100.85 950.832 2105.8C950.832 2112 945.265 2116.72 939.151 2115.7L921.281 2112.72C915.498 2111.76 910.012 2109.48 905.241 2106.08L887.831 2093.64C882.087 2089.54 881.552 2081.2 886.725 2076.39Z" fill="#FFD700"/>
<path d="M1690.38 2206.57C1689.92 2198.8 1695.69 2192.05 1703.44 2191.3L1720.43 2189.67C1727.69 2188.97 1734.53 2185.97 1739.97 2181.12L1755.83 2166.96C1760.63 2162.68 1767.83 2162.53 1772.79 2166.62C1779 2171.74 1779.13 2181.21 1773.06 2186.5L1755.32 2201.95C1749.58 2206.95 1742.77 2210.57 1735.41 2212.53L1708.57 2219.71C1699.72 2222.08 1690.92 2215.72 1690.38 2206.57Z" fill="#FFD700"/>
<path d="M864.761 2125.74C870.244 2120.65 878.771 2120.81 884.062 2126.1L895.656 2137.7C900.607 2142.65 907.007 2145.89 913.928 2146.95L934.112 2150.06C940.215 2151 944.721 2156.25 944.721 2162.43C944.721 2170.16 937.779 2176.04 930.152 2174.77L907.863 2171.05C900.65 2169.85 893.807 2167.02 887.857 2162.77L866.141 2147.25C858.977 2142.14 858.31 2131.73 864.761 2125.74Z" fill="#FFD700"/>
<path d="M1701.61 2078.47C1708.09 2076.55 1715.09 2080.3 1715.08 2087.06C1715.07 2089.62 1714.83 2092.19 1714.36 2094.73C1713.13 2101.3 1710.36 2107.48 1706.27 2112.76C1702.19 2118.05 1696.91 2122.29 1690.86 2125.13C1684.82 2127.98 1678.18 2129.35 1671.51 2129.12C1664.83 2128.9 1658.3 2127.1 1652.46 2123.86C1646.62 2120.62 1641.63 2116.04 1637.9 2110.5C1634.17 2104.96 1631.82 2098.61 1631.03 2091.97C1630.72 2089.41 1630.65 2086.83 1630.81 2084.27C1631.25 2077.53 1638.48 2074.25 1644.82 2076.59L1648.43 2077.92C1652.77 2079.53 1654.77 2084.48 1655.31 2089.07C1655.65 2091.86 1656.64 2094.53 1658.2 2096.85C1659.77 2099.18 1661.86 2101.11 1664.32 2102.47C1666.77 2103.83 1669.51 2104.58 1672.32 2104.68C1675.12 2104.77 1677.91 2104.19 1680.44 2103C1682.98 2101.81 1685.2 2100.02 1686.92 2097.8C1688.63 2095.58 1689.8 2092.99 1690.31 2090.23C1691.16 2085.68 1693.48 2080.88 1697.92 2079.56L1701.61 2078.47Z" fill="#FFD700"/>
<path d="M1590.84 2074.54C1583.52 2073.77 1576.84 2079.07 1577.11 2086.43C1577.43 2094.83 1578.94 2103.18 1581.63 2111.24C1585.73 2123.52 1592.48 2134.84 1601.43 2144.46C1610.39 2154.08 1621.35 2161.78 1633.6 2167.07C1645.86 2172.36 1659.14 2175.11 1672.57 2175.16C1686.01 2175.2 1699.31 2172.53 1711.6 2167.32C1723.9 2162.11 1734.91 2154.48 1743.93 2144.92C1752.96 2135.36 1759.78 2124.09 1763.97 2111.83C1766.72 2103.8 1768.29 2095.47 1768.66 2087.06C1768.99 2079.7 1762.34 2074.36 1755.02 2075.08C1747.6 2075.81 1742.35 2082.49 1741.55 2089.9C1741.05 2094.61 1740.02 2099.27 1738.47 2103.8C1735.46 2112.62 1730.54 2120.74 1724.04 2127.62C1717.55 2134.51 1709.62 2140 1700.77 2143.75C1691.91 2147.5 1682.34 2149.42 1672.67 2149.39C1662.99 2149.36 1653.43 2147.38 1644.61 2143.57C1635.78 2139.76 1627.89 2134.21 1621.44 2127.29C1615 2120.36 1610.14 2112.21 1607.19 2103.37C1605.67 2098.83 1604.67 2094.17 1604.2 2089.46C1603.46 2082.04 1598.25 2075.32 1590.84 2074.54Z" fill="#FFD700"/>
<path d="M2253.13 1651.6C2246.42 1651.6 2239.99 1648.94 2235.25 1644.19C2230.5 1639.45 2227.84 1633.02 2227.84 1626.31C2227.84 1619.6 2230.5 1613.17 2235.25 1608.43C2239.99 1603.68 2246.42 1601.02 2253.13 1601.02C2259.84 1601.02 2266.27 1603.68 2271.01 1608.43C2275.76 1613.17 2278.42 1619.6 2278.42 1626.31C2278.42 1633.02 2275.76 1639.45 2271.01 1644.19C2266.27 1648.94 2259.84 1651.6 2253.13 1651.6ZM2306.82 1633.32C2307.11 1631.01 2307.33 1628.69 2307.33 1626.31C2307.33 1623.92 2307.11 1621.54 2306.82 1619.08L2322.07 1607.3C2323.44 1606.22 2323.8 1604.27 2322.93 1602.68L2308.48 1577.68C2307.61 1576.09 2305.66 1575.44 2304.07 1576.09L2286.08 1583.31C2282.32 1580.5 2278.42 1578.04 2273.87 1576.23L2271.19 1557.08C2271.05 1556.23 2270.6 1555.46 2269.94 1554.9C2269.28 1554.35 2268.45 1554.05 2267.58 1554.05H2238.68C2236.87 1554.05 2235.35 1555.35 2235.06 1557.08L2232.39 1576.23C2227.84 1578.04 2223.94 1580.5 2220.18 1583.31L2202.18 1576.09C2200.59 1575.44 2198.64 1576.09 2197.78 1577.68L2183.32 1602.68C2182.38 1604.27 2182.82 1606.22 2184.19 1607.3L2199.44 1619.08C2199.15 1621.54 2198.93 1623.92 2198.93 1626.31C2198.93 1628.69 2199.15 1631.01 2199.44 1633.32L2184.19 1645.31C2182.82 1646.4 2182.38 1648.35 2183.32 1649.94L2197.78 1674.94C2198.64 1676.53 2200.59 1677.11 2202.18 1676.53L2220.18 1669.23C2223.94 1672.12 2227.84 1674.58 2232.39 1676.39L2235.06 1695.54C2235.35 1697.27 2236.87 1698.57 2238.68 1698.57H2267.58C2269.39 1698.57 2270.91 1697.27 2271.19 1695.54L2273.87 1676.39C2278.42 1674.51 2282.32 1672.12 2286.08 1669.23L2304.07 1676.53C2305.66 1677.11 2307.61 1676.53 2308.48 1674.94L2322.93 1649.94C2323.8 1648.35 2323.44 1646.4 2322.07 1645.31L2306.82 1633.32Z" fill="#FFD700"/>
</svg>
