<svg width="1726" height="707" viewBox="0 0 1726 707" fill="none" xmlns="http://www.w3.org/2000/svg">
<path d="M244.686 19.1952L241.791 18.4533L240.765 15.687C240.598 15.2365 240.495 14.8129 240.446 14.4101C240.359 13.6771 240.417 12.9342 240.616 12.2235C240.816 11.5122 241.153 10.8473 241.61 10.2665C242.067 9.68584 242.633 9.20074 243.277 8.83896C243.921 8.47719 244.63 8.24582 245.364 8.15806C246.097 8.0703 246.841 8.12788 247.552 8.3275C248.263 8.52713 248.928 8.86489 249.509 9.3215C250.09 9.7781 250.575 10.3446 250.937 10.9887C251.299 11.6328 251.53 12.3418 251.618 13.0753L251.618 13.0783C251.706 13.8118 251.649 14.5554 251.449 15.2668C251.25 15.9781 250.912 16.6432 250.456 17.224C249.999 17.8049 249.433 18.29 248.789 18.6519C248.147 19.0125 247.44 19.2436 246.709 19.332C246.032 19.4108 245.346 19.3644 244.686 19.1952ZM206.444 107.235L206.446 107.235L206.444 107.235ZM221.193 141.586C221.194 141.587 221.194 141.588 221.195 141.588C221.194 141.588 221.194 141.587 221.193 141.586Z" fill="url(#paint0_linear_178_211)" stroke="url(#paint1_linear_178_211)" stroke-width="16.2365"/>
<path d="M812.883 402.312C812.883 421.31 809.824 437.248 803.706 450.128C797.588 463.008 789.055 473.473 778.107 481.523C767.159 489.573 753.957 495.369 738.501 498.911C723.368 502.453 706.785 504.385 688.753 504.707H620.167V634.15H543.371V281.563H688.27C699.862 281.563 712.742 282.851 726.91 285.427C741.399 287.681 754.923 292.994 767.481 301.366C780.361 309.416 791.148 321.49 799.842 337.59C808.536 353.368 812.883 374.942 812.883 402.312ZM681.508 459.305C700.506 459.305 715.157 454.797 725.461 445.781C736.086 436.765 741.399 422.598 741.399 403.278C741.399 383.958 737.052 369.629 728.359 360.291C719.665 350.953 705.497 346.123 685.855 345.801H620.167V459.305H681.508ZM923.938 634.15H853.42V282.529H923.938V634.15ZM1052.47 634.15H966.981V282.046H1052.47L1180.47 525.959V282.046H1250.98V634.15H1176.6L1052.47 413.904V634.15ZM1353.41 634.15H1275.65L1401.22 282.046H1469.33L1593.94 634.15H1529.7L1507.97 561.217H1377.56L1353.41 634.15ZM1396.88 519.68H1487.2L1443.25 370.434H1442.28L1396.88 519.68ZM1701.26 634.15H1630.74V282.529H1701.26V634.15Z" fill="url(#paint2_linear_178_211)"/>
<path d="M266.237 222.049L266.237 222.049L240.804 247.477C240.803 247.478 240.802 247.479 240.802 247.479C236.801 251.502 236.8 258.068 240.813 262.103C240.814 262.103 240.814 262.103 240.814 262.104L310.246 331.532C312.2 333.48 314.79 334.548 317.552 334.548C320.312 334.548 322.9 333.482 324.866 331.524L324.868 331.522M266.237 222.049L324.868 331.522M266.237 222.049C267.265 221.022 268.841 220.777 270.132 221.451L266.237 222.049ZM324.868 331.522L394.29 262.097L324.868 331.522ZM264.889 232.813L265.638 235.84C268.728 248.327 280.03 257.772 293.426 257.775L264.889 232.813ZM264.889 232.813L262.683 235.018M264.889 232.813L262.683 235.018M262.683 235.018L245.519 252.177L245.514 252.181M262.683 235.018L245.514 252.181M245.514 252.181C244.086 253.62 244.097 255.96 245.524 257.397L245.528 257.401M245.514 252.181L245.528 257.401M245.528 257.401L314.942 326.817L314.949 326.824M245.528 257.401L314.949 326.824M314.949 326.824C315.552 327.421 316.414 328.059 317.547 328.059C318.681 328.059 319.547 327.421 320.161 326.812L320.166 326.807M314.949 326.824L320.166 326.807M320.166 326.807L389.577 257.391L389.581 257.387M320.166 326.807L389.581 257.387M389.581 257.387C391.012 255.946 391.006 253.616 389.576 252.176L389.572 252.172M389.581 257.387L389.572 252.172M389.572 252.172L365.09 227.706C364.087 226.702 363.829 225.173 364.445 223.904C365.067 222.62 366.406 221.875 367.817 222.045C367.819 222.045 367.82 222.046 367.822 222.046L368.571 222.141C368.574 222.142 368.577 222.142 368.579 222.143C368.626 222.149 368.676 222.156 368.729 222.164C369.088 222.215 369.595 222.288 370.114 222.288C380.907 222.288 389.686 213.516 389.686 202.726C389.686 191.927 380.909 183.144 370.114 183.144C359.323 183.144 350.547 191.928 350.547 202.726C350.547 203.223 350.617 203.708 350.666 204.051C350.672 204.089 350.677 204.124 350.681 204.158L350.787 205.036C350.858 205.718 350.717 206.405 350.383 207.004C350.047 207.606 349.532 208.088 348.91 208.385L348.91 208.385M389.572 252.172L348.91 208.385M348.91 208.385C347.65 208.987 346.122 208.729 345.124 207.734L348.91 208.385ZM320.152 182.749L320.159 182.756L345.123 207.733L320.152 182.749ZM320.152 182.749C319.549 182.152 318.687 181.514 317.554 181.514C316.42 181.514 315.553 182.152 314.939 182.761L314.935 182.766M320.152 182.749L314.935 182.766M314.935 182.766L299.486 198.215L297.281 200.42M314.935 182.766L297.281 200.42M297.281 200.42L300.308 201.17M297.281 200.42L300.308 201.17M300.308 201.17C312.709 204.241 321.141 215.472 321.141 228.974M300.308 201.17L321.141 228.974M321.141 228.974C321.141 244.838 309.134 257.774 293.427 257.775L321.141 228.974ZM394.286 247.468C398.308 251.502 398.308 258.067 394.292 262.095L270.132 221.451C271.417 222.123 272.121 223.554 271.868 224.985C271.597 226.509 271.464 227.785 271.464 228.971C271.464 241.058 281.295 251.116 293.429 251.116C305.677 251.116 314.482 240.949 314.482 228.971C314.482 216.958 305.658 206.994 293.429 206.994C292.25 206.994 290.979 207.129 289.46 207.398L289.46 207.398L289.447 207.4C288.019 207.664 286.603 206.961 285.924 205.662C285.252 204.372 285.496 202.793 286.522 201.767L286.522 201.767L310.235 178.049C310.236 178.048 310.236 178.047 310.237 178.047C314.144 174.16 320.974 174.17 324.86 178.038C324.86 178.038 324.86 178.039 324.861 178.039L342.221 195.409L344.259 197.449L345.142 194.703C348.54 184.143 358.457 176.482 370.116 176.482C384.577 176.482 396.347 188.256 396.347 202.723C396.347 214.382 388.691 224.299 378.127 227.691L375.379 228.574L377.421 230.613L394.285 247.468C394.285 247.468 394.285 247.468 394.286 247.468Z" fill="url(#paint3_linear_178_211)" stroke="url(#paint4_linear_178_211)" stroke-width="3.52203"/>
<path d="M202.777 393.418C200.848 393.773 198.978 393.705 197.537 393.351C192.361 391.76 188.409 388.98 183.245 379.614C177.941 369.861 170.66 366.181 163.67 362.585C157.667 359.495 151.44 356.309 145.136 348.597C140.434 342.86 137.218 336.23 136.079 330.044C132.648 311.417 144.587 294.086 163.214 290.655C181.841 287.224 199.172 299.163 202.603 317.79L215.908 315.34C211.093 289.196 186.908 272.534 160.764 277.35C134.62 282.165 117.958 306.35 122.774 332.494C124.318 340.876 128.549 349.658 134.671 357.128C142.746 366.989 150.881 371.2 157.49 374.591C163.638 377.723 168.048 380.006 171.377 386.133C177.599 397.505 183.971 403.347 193.889 406.404C198.277 407.48 202.866 407.439 207.235 406.285C211.604 405.132 215.614 402.903 218.9 399.801C222.187 396.699 224.644 392.824 226.047 388.529C227.451 384.234 227.756 379.655 226.936 375.212L213.631 377.663C214.979 384.98 210.095 392.07 202.777 393.418ZM119.238 289.4L108.052 281.694C97.2518 297.371 92.4389 317.172 96.1639 337.396C99.8888 357.619 111.441 374.406 127.118 385.206L134.77 374.098C121.996 365.24 112.52 351.51 109.469 334.945C106.418 318.38 110.38 302.175 119.238 289.4ZM152.71 326.98C153.522 331.391 156.054 335.299 159.747 337.843C163.44 340.388 167.993 341.361 172.404 340.548C176.815 339.736 180.723 337.204 183.267 333.511C185.811 329.817 186.785 325.265 185.972 320.854C185.16 316.443 182.628 312.535 178.935 309.991C175.241 307.446 170.688 306.473 166.278 307.286C161.867 308.098 157.959 310.63 155.415 314.323C152.87 318.017 151.897 322.569 152.71 326.98Z" fill="url(#paint5_linear_178_211)"/>
<path d="M58.4821 331.741C58.4821 315.586 45.3967 302.5 29.2411 302.5C13.0854 302.5 0 315.586 0 331.741V493.664C0 512.305 7.38337 530.142 20.5418 543.3L93.5714 616.33C102.344 625.102 114.259 630 126.687 630H175.446C194.819 630 210.536 614.283 210.536 594.911V537.233C210.536 515.521 201.909 494.687 186.558 479.335L168.063 460.841L156.951 449.729L133.559 426.336C124.421 417.198 109.581 417.198 100.443 426.336C91.3052 435.474 91.3052 450.314 100.443 459.452L123.836 482.844L134.947 493.956C142.989 501.997 141.673 515.302 132.243 521.589C125.152 526.34 115.648 525.39 109.581 519.323L72.1523 481.967C63.38 473.195 58.4821 461.279 58.4821 448.852V331.741ZM409.375 331.741V448.852C409.375 461.279 404.477 473.195 395.705 481.967L358.349 519.323C352.282 525.39 342.778 526.34 335.687 521.589C326.257 515.302 324.941 501.924 332.982 493.956L344.094 482.844L367.487 459.452C376.625 450.314 376.625 435.474 367.487 426.336C358.349 417.198 343.509 417.198 334.371 426.336L310.979 449.729L299.867 460.841L281.372 479.335C266.02 494.687 257.394 515.521 257.394 537.233V594.911C257.394 614.283 273.111 630 292.484 630H341.243C353.671 630 365.586 625.102 374.359 616.33L447.388 543.3C460.547 530.142 467.93 512.305 467.93 493.664L467.857 419.464V331.741C467.857 315.586 454.771 302.5 438.616 302.5C422.46 302.5 409.375 315.586 409.375 331.741Z" fill="url(#paint6_linear_178_211)"/>
<path d="M150.922 226.434C178.425 223.109 200.369 204.97 209.882 180.938C194.917 159.866 169.282 147.478 141.779 150.803C114.277 154.127 92.3325 172.267 82.8202 196.299C97.7851 217.371 123.42 229.759 150.922 226.434ZM140.948 143.927C172.301 140.137 201.593 155.082 217.582 180.007C207.994 208.024 183.106 229.52 151.754 233.31C120.401 237.1 91.1083 222.155 75.1195 197.23C84.7081 169.212 109.595 147.717 140.948 143.927ZM142.611 157.678C159.8 155.6 175.213 167.689 177.291 184.878C179.369 202.067 167.28 217.481 150.091 219.559C132.902 221.637 117.489 209.548 115.411 192.359C113.333 175.17 125.421 159.756 142.611 157.678ZM143.442 164.554C137.059 165.325 131.245 168.601 127.278 173.659C123.31 178.718 121.515 185.145 122.286 191.528C123.058 197.91 126.333 203.724 131.392 207.692C136.45 211.659 142.878 213.455 149.26 212.683C155.642 211.911 161.457 208.636 165.424 203.578C169.392 198.519 171.187 192.092 170.416 185.709C169.644 179.327 166.369 173.512 161.31 169.545C156.251 165.578 149.824 163.782 143.442 164.554Z" fill="url(#paint7_linear_178_211)"/>
<defs>
<linearGradient id="paint0_linear_178_211" x1="270.577" y1="0" x2="270.577" y2="156.335" gradientUnits="userSpaceOnUse">
<stop stop-color="#80C9FF"/>
<stop offset="1" stop-color="#FFD700"/>
</linearGradient>
<linearGradient id="paint1_linear_178_211" x1="270.577" y1="0" x2="270.577" y2="156.335" gradientUnits="userSpaceOnUse">
<stop stop-color="#ADD8E6"/>
<stop offset="1" stop-color="#FFD700"/>
</linearGradient>
<linearGradient id="paint2_linear_178_211" x1="1125" y1="224" x2="1125" y2="707" gradientUnits="userSpaceOnUse">
<stop stop-color="#ADD8E6"/>
<stop offset="1" stop-color="#FFD700"/>
</linearGradient>
<linearGradient id="paint3_linear_178_211" x1="317.553" y1="173.373" x2="317.553" y2="336.31" gradientUnits="userSpaceOnUse">
<stop stop-color="#80C9FF"/>
<stop offset="1" stop-color="#FFD700"/>
</linearGradient>
<linearGradient id="paint4_linear_178_211" x1="317.553" y1="173.373" x2="317.553" y2="336.31" gradientUnits="userSpaceOnUse">
<stop stop-color="#ADD8E6"/>
<stop offset="1" stop-color="#FFD700"/>
</linearGradient>
<linearGradient id="paint5_linear_178_211" x1="146.503" y1="274.612" x2="171.967" y2="412.861" gradientUnits="userSpaceOnUse">
<stop stop-color="#80C9FF"/>
<stop offset="1" stop-color="#FFD700"/>
</linearGradient>
<linearGradient id="paint6_linear_178_211" x1="233.965" y1="302.5" x2="233.965" y2="630" gradientUnits="userSpaceOnUse">
<stop offset="0.175281" stop-color="#ADD8E6"/>
<stop offset="0.57" stop-color="#D4D878"/>
<stop offset="1" stop-color="#FFD700"/>
</linearGradient>
<linearGradient id="paint7_linear_178_211" x1="140.948" y1="143.927" x2="151.754" y2="233.31" gradientUnits="userSpaceOnUse">
<stop stop-color="#80C9FF"/>
<stop offset="1" stop-color="#FFD700"/>
</linearGradient>
</defs>
</svg>
