<svg width="1726" height="707" viewBox="0 0 1726 707" fill="none" xmlns="http://www.w3.org/2000/svg">
<path d="M812.883 402.312C812.883 421.31 809.824 437.248 803.706 450.128C797.588 463.008 789.055 473.473 778.107 481.523C767.159 489.573 753.957 495.369 738.501 498.911C723.368 502.453 706.785 504.385 688.753 504.707H620.167V634.15H543.371V281.563H688.27C699.862 281.563 712.742 282.851 726.91 285.427C741.399 287.681 754.923 292.994 767.481 301.366C780.361 309.416 791.148 321.49 799.842 337.59C808.536 353.368 812.883 374.942 812.883 402.312ZM681.508 459.305C700.506 459.305 715.157 454.797 725.461 445.781C736.086 436.765 741.399 422.598 741.399 403.278C741.399 383.958 737.052 369.629 728.359 360.291C719.665 350.953 705.497 346.123 685.855 345.801H620.167V459.305H681.508ZM923.938 634.15H853.42V282.529H923.938V634.15ZM1052.47 634.15H966.981V282.046H1052.47L1180.47 525.959V282.046H1250.98V634.15H1176.6L1052.47 413.904V634.15ZM1353.41 634.15H1275.65L1401.22 282.046H1469.33L1593.94 634.15H1529.7L1507.97 561.217H1377.56L1353.41 634.15ZM1396.88 519.68H1487.2L1443.25 370.434H1442.28L1396.88 519.68ZM1701.26 634.15H1630.74V282.529H1701.26V634.15Z" fill="white"/>
<path d="M219.146 402.834C217.217 403.19 215.347 403.121 213.906 402.768C208.73 401.176 204.779 398.396 199.614 389.03C194.31 379.277 187.029 375.597 180.039 372.001C174.036 368.911 167.809 365.725 161.505 358.013C156.803 352.276 153.587 345.647 152.448 339.46C149.017 320.833 160.957 303.502 179.583 300.071C198.21 296.64 215.541 308.58 218.972 327.207L232.277 324.756C227.462 298.612 203.277 281.951 177.133 286.766C150.989 291.582 134.327 315.766 139.143 341.911C140.687 350.293 144.918 359.074 151.04 366.544C159.115 376.406 167.25 380.616 173.859 384.007C180.007 387.139 184.417 389.422 187.747 395.549C193.968 406.922 200.34 412.764 210.258 415.82C214.647 416.896 219.235 416.855 223.604 415.702C227.973 414.548 231.984 412.319 235.27 409.217C238.556 406.116 241.013 402.24 242.416 397.945C243.82 393.65 244.126 389.072 243.305 384.628L230 387.079C231.348 394.396 226.464 401.486 219.146 402.834ZM135.607 298.817L124.421 291.11C113.621 306.787 108.808 326.588 112.533 346.812C116.258 367.035 127.81 383.822 143.487 394.622L151.139 383.515C138.365 374.656 128.889 360.926 125.838 344.361C122.787 327.797 126.749 311.591 135.607 298.817ZM169.079 336.397C169.891 340.807 172.423 344.715 176.116 347.259C179.81 349.804 184.363 350.777 188.773 349.964C193.184 349.152 197.092 346.621 199.636 342.927C202.181 339.234 203.154 334.681 202.341 330.27C201.529 325.859 198.997 321.952 195.304 319.407C191.611 316.863 187.058 315.89 182.647 316.702C178.236 317.515 174.328 320.046 171.784 323.739C169.24 327.433 168.266 331.986 169.079 336.397Z" fill="white"/>
<path d="M58.4821 331.741C58.4821 315.585 45.3967 302.5 29.2411 302.5C13.0854 302.5 0 315.585 0 331.741V493.663C0 512.305 7.38337 530.142 20.5418 543.3L93.5714 616.33C102.344 625.102 114.259 630 126.687 630H175.446C194.819 630 210.536 614.283 210.536 594.91V537.233C210.536 515.521 201.909 494.687 186.558 479.335L168.063 460.84L156.951 449.729L133.559 426.336C124.421 417.198 109.581 417.198 100.443 426.336C91.3052 435.474 91.3052 450.314 100.443 459.451L123.836 482.844L134.947 493.956C142.989 501.997 141.673 515.302 132.243 521.589C125.152 526.34 115.648 525.39 109.581 519.322L72.1523 481.967C63.38 473.195 58.4821 461.279 58.4821 448.851V331.741ZM409.375 331.741V448.851C409.375 461.279 404.477 473.195 395.705 481.967L358.349 519.322C352.282 525.39 342.778 526.34 335.687 521.589C326.257 515.302 324.941 501.924 332.982 493.956L344.094 482.844L367.487 459.451C376.625 450.314 376.625 435.474 367.487 426.336C358.349 417.198 343.509 417.198 334.371 426.336L310.979 449.729L299.867 460.84L281.372 479.335C266.02 494.687 257.394 515.521 257.394 537.233V594.91C257.394 614.283 273.111 630 292.484 630H341.243C353.671 630 365.586 625.102 374.359 616.33L447.388 543.3C460.547 530.142 467.93 512.305 467.93 493.663L467.857 419.464V331.741C467.857 315.585 454.771 302.5 438.616 302.5C422.46 302.5 409.375 315.585 409.375 331.741Z" fill="white"/>
<path d="M152.206 232.118C179.708 228.794 201.652 210.654 211.165 186.622C196.2 165.55 170.565 153.162 143.063 156.487C115.56 159.811 93.6157 177.951 84.1034 201.983C99.0683 223.055 124.703 235.443 152.206 232.118ZM142.231 149.611C173.584 145.821 202.877 160.766 218.865 185.691C209.277 213.708 184.39 235.204 153.037 238.994C121.684 242.784 92.3915 227.839 76.4027 202.914C85.9913 174.897 110.879 153.401 142.231 149.611ZM143.894 163.362C161.083 161.284 176.496 173.373 178.574 190.562C180.652 207.751 168.563 223.165 151.374 225.243C134.185 227.321 118.772 215.232 116.694 198.043C114.616 180.854 126.705 165.44 143.894 163.362ZM144.725 170.238C138.343 171.009 132.528 174.285 128.561 179.343C124.593 184.402 122.798 190.829 123.569 197.212C124.341 203.594 127.616 209.408 132.675 213.376C137.733 217.343 144.161 219.139 150.543 218.367C156.926 217.596 162.74 214.32 166.707 209.262C170.675 204.203 172.47 197.776 171.699 191.393C170.927 185.011 167.652 179.197 162.593 175.229C157.535 171.262 151.107 169.466 144.725 170.238Z" fill="white" stroke="white" stroke-width="2"/>
<path d="M284.156 185.069C277.924 185.064 271.819 183.3 266.546 179.978C261.272 176.657 257.044 171.913 254.348 166.294C251.652 160.675 250.598 154.409 251.307 148.217C252.016 142.025 254.459 136.159 258.355 131.295L251.928 124.867C245.124 132.927 241.594 143.248 242.037 153.787C242.48 164.325 246.863 174.314 254.318 181.775C261.774 189.236 271.759 193.627 282.297 194.077C292.835 194.528 303.159 191.006 311.224 184.209L304.796 177.781C298.944 182.485 291.664 185.055 284.156 185.069Z" fill="white"/>
<path d="M337.923 50.0001C335.128 49.9911 332.393 50.8118 330.065 52.3581C327.736 53.9045 325.919 56.1069 324.843 58.6867C323.768 61.2664 323.481 64.1074 324.021 66.8499C324.561 69.5924 325.902 72.113 327.876 74.0926C329.849 76.0722 332.365 77.4217 335.106 77.9703C337.847 78.5189 340.689 78.2419 343.272 77.1743C345.855 76.1068 348.063 74.2967 349.617 71.9733C351.171 69.6499 352 66.9177 352 64.1226C352 60.3849 350.519 56.7996 347.88 54.1524C345.241 51.5052 341.661 50.0121 337.923 50.0001Z" fill="white"/>
<path d="M338.651 122.786H314.48C313.545 121.79 312.549 120.84 311.493 119.934L331.318 97.9357C332.269 96.8612 332.97 95.5889 333.369 94.2107C333.768 92.8325 333.856 91.3829 333.626 89.9665C333.397 88.5502 332.855 87.2026 332.041 86.021C331.227 84.8394 330.161 83.8534 328.919 83.1343L311.9 73.2214L294.473 63.4442C293.694 63.0001 292.8 62.7973 291.906 62.8618C291.011 62.9263 290.156 63.255 289.449 63.8064L267.767 80.7805C266.819 81.5188 266.203 82.6036 266.054 83.7963C265.905 84.989 266.237 86.1918 266.975 87.1402C267.713 88.0886 268.798 88.7048 269.991 88.8534C271.183 89.0019 272.386 88.6706 273.335 87.9323L292.663 72.814L305.653 80.1921L278.857 110.157C271.554 111.104 264.626 113.944 258.76 118.395L265.187 124.868C271.551 120.396 279.289 118.312 287.038 118.983C294.787 119.654 302.051 123.038 307.551 128.538C313.052 134.038 316.435 141.302 317.106 149.051C317.778 156.8 315.693 164.538 311.221 170.902L317.694 177.375C322.646 170.955 325.632 163.237 326.29 155.156C326.949 147.075 325.252 138.976 321.405 131.839H333.808L330.323 161.306C330.182 162.494 330.517 163.689 331.255 164.631C331.993 165.572 333.073 166.183 334.261 166.33H334.804C335.916 166.338 336.992 165.937 337.827 165.202C338.662 164.467 339.197 163.451 339.33 162.347L343.404 127.856C343.475 127.22 343.411 126.578 343.216 125.969C343.021 125.361 342.7 124.8 342.272 124.325C341.824 123.812 341.265 123.408 340.638 123.141C340.011 122.875 339.332 122.753 338.651 122.786Z" fill="white"/>
<path d="M397.712 269.83L377.506 249.625C385.68 247.788 391.742 240.441 391.742 231.716C391.742 221.613 383.476 213.347 373.373 213.347C364.649 213.347 357.393 219.409 355.464 227.583L335.259 207.378C333.422 205.541 330.575 205.541 328.738 207.378L308.533 227.583C316.799 229.512 322.86 236.767 322.86 245.492C322.86 255.595 314.595 263.86 304.492 263.86C295.767 263.86 288.512 257.799 286.583 249.625L266.378 269.83C264.541 271.667 264.541 274.514 266.378 276.351L286.583 296.556C278.409 298.393 272.347 305.74 272.347 314.465C272.347 324.568 280.613 332.834 290.716 332.834C299.441 332.834 306.696 326.772 308.625 318.598L328.83 338.803C330.667 340.64 333.514 340.64 335.351 338.803L355.556 318.598C347.29 316.578 341.229 309.322 341.229 300.597C341.229 290.495 349.495 282.229 359.597 282.229C368.322 282.229 375.578 288.29 377.506 296.464L397.712 276.259C399.457 274.514 399.457 271.575 397.712 269.83Z" stroke="white" stroke-width="9.18419" stroke-linejoin="round"/>
</svg>
